<?xml version="1.0" encoding="utf-8"?>
<!-- Generator: Adobe Illustrator 22.1.0, SVG Export Plug-In . SVG Version: 6.00 Build 0)  -->
<svg version="1.1" id="Layer_1" xmlns="http://www.w3.org/2000/svg" xmlns:xlink="http://www.w3.org/1999/xlink" x="0px" y="0px"
	 viewBox="0 0 283.5 283.5" style="enable-background:new 0 0 283.5 283.5;" xml:space="preserve">
<style type="text/css">
	.st0{fill:#0071BB;}
	.st1{fill:#FFF100;}
	.st2{fill-rule:evenodd;clip-rule:evenodd;fill:#0071BB;}
</style>
<g>
	<path class="st0" d="M53.5,141.7c0,53,42.9,95.9,95.9,95.9s95.9-42.9,95.9-95.9c0-53-42.9-95.9-95.9-95.9S53.5,88.8,53.5,141.7z
		 M33.6,141.7c0-64,51.9-115.8,115.8-115.8s115.8,51.9,115.8,115.8c0,64-51.9,115.8-115.8,115.8S33.6,205.7,33.6,141.7z"/>
	<g>
		
			<ellipse transform="matrix(0.9998 -2.016831e-02 2.016831e-02 0.9998 -2.8282 3.0421)" class="st1" cx="149.4" cy="141.7" rx="104.5" ry="104.5"/>
		<path class="st1" d="M149.4,141.7"/>
	</g>
	<g>
		<path class="st2" d="M38.1,29.3c130.5,82.9,108.5,178.9,108.5,178.9l-20.5,18.8C128.5,111.6,18.2,49.7,18.2,49.7L38.1,29.3z"/>
		<path class="st2" d="M115.3,89.8l11.4-10.5c33.2,26.8,38.3,72.4,38.3,72.4c22.7-53.3,64.8-48.6,64.8-48.6l-6.5,13.4
			c-44.3,4.7-50,56.2-50,56.2l-17,13.1C154.4,125.7,115.3,89.8,115.3,89.8z"/>
	</g>
</g>
</svg>
