<?xml version="1.0" standalone="no"?>
<!DOCTYPE svg PUBLIC "-//W3C//DTD SVG 20010904//EN"
 "http://www.w3.org/TR/2001/REC-SVG-20010904/DTD/svg10.dtd">
<svg version="1.0" xmlns="http://www.w3.org/2000/svg"
 width="300.000000pt" height="50.000000pt" viewBox="0 0 1000.000000 271.000000"
 preserveAspectRatio="xMidYMid meet">

<g transform="translate(0.000000,271.000000) scale(0.100000,-0.100000)"
fill="#000000" stroke="none">
<path d="M1286 2554 c-176 -32 -365 -115 -512 -225 -46 -34 -82 -55 -88 -50
-6 4 -40 31 -76 58 -36 28 -114 85 -174 127 l-109 77 -35 -33 c-18 -18 -65
-68 -103 -110 l-70 -77 88 -59 c76 -51 124 -88 266 -203 19 -16 19 -17 -22
-86 -179 -301 -221 -687 -111 -1024 119 -363 422 -666 785 -784 245 -80 556
-75 797 11 600 216 939 865 773 1482 -108 401 -406 721 -796 852 -172 58 -431
77 -613 44z m387 -109 c413 -62 758 -352 890 -748 47 -138 60 -236 54 -397 -6
-174 -34 -293 -100 -434 -59 -125 -114 -203 -215 -308 -142 -147 -315 -249
-517 -304 -91 -25 -115 -27 -275 -27 -156 0 -185 2 -271 25 -134 36 -233 80
-337 148 -167 110 -290 246 -380 418 -170 328 -173 704 -7 1032 59 115 55 114
120 50 85 -82 213 -241 295 -365 206 -313 322 -665 329 -1000 1 -55 3 -100 4
-101 1 -1 51 44 111 100 l110 103 4 139 c14 447 -195 908 -596 1313 -81 83
-100 107 -91 117 23 27 149 105 241 149 196 92 411 123 631 90z"/>
<path d="M1201 1946 l-54 -55 57 -63 c195 -214 333 -533 369 -849 l12 -107 86
68 85 67 22 89 c13 49 43 131 68 183 81 167 230 292 386 322 l59 12 35 68 34
69 -43 0 c-66 0 -190 -35 -266 -75 -142 -75 -263 -206 -347 -378 l-28 -57 -31
123 c-45 177 -103 307 -198 447 -38 55 -166 190 -182 190 -6 0 -35 -24 -64
-54z"/>
<path d="M2856 2130 c-37 -12 -46 -26 -46 -72 0 -29 7 -42 34 -65 18 -15 38
-38 44 -49 6 -12 85 -294 176 -627 90 -333 170 -615 176 -626 9 -18 20 -21 85
-21 48 0 78 5 87 13 7 8 42 138 77 290 36 153 68 274 71 270 4 -5 37 -129 73
-278 46 -190 71 -273 83 -282 11 -8 47 -13 91 -13 65 0 74 2 86 23 8 12 92
298 188 636 l173 613 43 44 c48 49 56 86 24 125 -17 21 -28 24 -124 27 -116 5
-170 -7 -188 -40 -15 -28 -5 -72 26 -112 16 -21 25 -46 25 -69 0 -20 -43 -197
-96 -394 -105 -397 -103 -388 -109 -382 -9 9 -125 465 -125 491 0 18 13 40 40
67 41 40 47 61 31 104 -14 36 -59 47 -200 47 -164 0 -195 -13 -199 -82 -3 -42
0 -49 29 -70 54 -40 54 -47 -7 -300 -30 -128 -56 -234 -58 -236 -6 -5 -5 -6
-106 382 -49 192 -90 360 -90 373 0 28 22 74 44 92 22 18 21 94 -1 112 -19 17
-310 24 -357 9z"/>
<path d="M5199 2123 c-56 -38 -125 -101 -160 -146 -48 -61 -51 -96 -10 -143
17 -18 35 -50 40 -71 7 -24 11 -194 11 -451 0 -446 0 -449 -55 -514 -27 -32
-34 -95 -13 -116 8 -8 58 -12 160 -12 147 0 148 0 164 25 22 34 12 77 -30 126
-18 22 -36 54 -40 71 -3 17 -6 300 -6 629 0 571 -1 599 -18 608 -14 7 -25 6
-43 -6z"/>
<path d="M5578 2110 c-83 -55 -188 -177 -188 -219 0 -4 17 -29 38 -56 l37 -48
3 -463 3 -463 -30 -34 c-51 -57 -63 -127 -28 -149 21 -13 302 -9 315 4 7 7 12
31 12 55 0 33 -7 50 -30 76 -16 19 -34 46 -40 61 -6 18 -10 241 -10 636 0 586
-1 610 -19 619 -14 8 -28 4 -63 -19z"/>
<path d="M9675 1964 c-104 -39 -154 -157 -106 -252 47 -93 153 -127 249 -81
124 60 132 239 13 313 -49 31 -106 39 -156 20z m133 -44 c129 -79 74 -280 -76
-280 -84 0 -146 64 -146 150 0 116 124 189 222 130z"/>
<path d="M9708 1882 l-58 -3 0 -94 c0 -88 1 -95 20 -95 17 0 20 7 20 46 0 38
3 45 16 40 9 -3 17 -6 20 -6 2 0 13 -18 24 -40 13 -26 27 -40 40 -40 25 0 25
7 0 48 l-20 33 21 28 c23 32 19 66 -9 79 -9 4 -43 6 -74 4z m53 -38 c11 -14
10 -18 -6 -30 -10 -8 -29 -14 -42 -14 -19 0 -23 5 -23 30 0 26 3 30 29 30 16
0 35 -7 42 -16z"/>
<path d="M6080 1636 c-97 -26 -171 -94 -226 -208 -51 -109 -68 -198 -61 -342
7 -169 49 -278 139 -362 65 -61 105 -77 195 -82 145 -8 214 27 278 142 51 92
68 147 56 179 -6 15 -14 27 -18 27 -5 -1 -35 -35 -68 -77 -70 -88 -105 -113
-160 -113 -80 0 -143 66 -176 186 -52 188 -22 444 62 522 13 13 36 22 55 22
51 0 87 -50 124 -172 36 -116 52 -141 74 -118 23 24 67 169 73 240 5 66 5 66
-31 97 -69 61 -212 88 -316 59z"/>
<path d="M4495 1628 c-57 -21 -117 -71 -155 -130 -70 -107 -96 -230 -87 -408
11 -219 84 -363 216 -424 69 -32 196 -29 271 7 124 59 250 253 198 305 -7 7
-16 12 -21 12 -5 0 -42 -33 -81 -74 -64 -65 -78 -75 -118 -81 -80 -12 -167 43
-202 127 l-16 37 183 140 c101 76 189 146 196 155 32 38 -26 193 -99 266 -58
58 -110 80 -190 79 -36 0 -78 -5 -95 -11z m106 -155 c36 -30 79 -114 79 -154
0 -22 -18 -40 -107 -107 -71 -53 -111 -77 -118 -71 -5 5 -11 59 -13 119 -4
100 -2 113 21 164 37 80 82 96 138 49z"/>
<path d="M6743 1615 c-126 -64 -210 -227 -220 -427 -12 -235 51 -416 171 -493
182 -115 436 -20 516 191 46 124 46 321 -1 461 -38 115 -123 219 -219 269 -22
11 -64 19 -115 22 -71 3 -86 1 -132 -23z m126 -130 c82 -75 159 -274 168 -437
7 -110 -8 -166 -54 -212 -76 -77 -170 21 -239 249 -23 76 -27 109 -28 215 -1
111 1 130 21 167 35 65 74 70 132 18z"/>
<path d="M7410 1554 c-84 -81 -120 -126 -120 -154 0 -6 18 -28 40 -50 l40 -39
0 -230 0 -229 -35 -46 c-41 -54 -51 -86 -35 -115 10 -20 19 -21 154 -21 126 0
145 2 159 18 26 29 21 67 -15 108 l-33 37 0 216 c0 241 9 287 66 336 59 49
109 24 128 -64 14 -67 15 -440 0 -478 -5 -15 -21 -39 -34 -53 -30 -33 -38 -61
-26 -94 l11 -26 140 0 c78 0 150 5 161 10 32 18 26 81 -11 113 -16 15 -32 38
-36 51 -3 13 -4 132 -2 264 3 226 4 242 24 269 15 19 30 28 50 28 26 0 33 -7
60 -63 41 -84 81 -255 99 -428 l7 -61 -46 -52 c-47 -52 -54 -77 -36 -112 10
-18 23 -19 166 -19 88 0 164 4 175 10 30 17 26 77 -9 120 -45 55 -48 63 -91
295 -86 457 -136 559 -262 542 -45 -6 -94 -45 -131 -105 l-20 -33 -28 48 c-45
78 -61 88 -145 88 -68 0 -76 -2 -105 -30 -18 -16 -48 -52 -68 -80 l-37 -50 -5
80 c-5 78 -6 80 -31 83 -22 3 -44 -13 -119 -84z"/>
<path d="M8708 1613 c-107 -86 -178 -170 -178 -212 0 -18 12 -36 37 -57 l38
-32 3 -193 c4 -240 0 -267 -44 -320 -36 -43 -45 -94 -22 -117 15 -15 271 -17
299 -2 30 17 26 77 -8 113 l-28 28 -3 218 c-3 201 -1 222 18 274 36 96 108
126 154 64 20 -27 21 -43 24 -269 2 -133 1 -251 -2 -263 -3 -12 -19 -36 -36
-53 -32 -34 -41 -87 -18 -110 8 -8 57 -12 153 -12 125 0 144 2 158 18 26 28
21 56 -18 102 -19 22 -37 57 -41 76 -3 19 -4 130 -2 247 5 236 14 281 62 293
32 8 51 -7 77 -58 40 -79 99 -354 99 -465 0 -36 -6 -48 -40 -82 -33 -33 -40
-46 -40 -79 0 -27 5 -42 16 -46 9 -3 85 -6 170 -6 153 0 154 0 170 25 21 32
14 59 -31 117 -34 43 -38 57 -70 234 -68 374 -115 521 -181 573 -31 25 -92 28
-133 7 -26 -14 -101 -101 -101 -118 0 -19 -18 -6 -24 17 -4 14 -26 45 -49 70
-42 43 -46 45 -103 45 -78 0 -98 -12 -161 -94 l-53 -68 0 69 c0 98 -28 118
-92 66z"/>
<path d="M3357 546 c-125 -35 -180 -142 -127 -250 38 -80 138 -116 261 -97 81
13 99 30 99 93 0 27 7 63 16 79 14 28 14 32 -2 50 -11 13 -15 28 -11 48 7 33
-9 56 -49 71 -43 17 -138 20 -187 6z m188 -48 c4 -4 4 -21 0 -38 -7 -31 -8
-31 -48 -24 -64 12 -100 7 -119 -17 -37 -44 -10 -109 44 -109 29 0 30 1 26 40
l-4 40 65 0 c51 0 62 -3 53 -12 -7 -7 -12 -36 -12 -65 0 -48 -3 -54 -26 -63
-46 -18 -154 -12 -200 10 -102 50 -95 187 11 236 31 15 196 16 210 2z"/>
<path d="M4601 545 c-66 -19 -102 -44 -126 -88 l-18 -34 -22 40 c-14 27 -36
49 -65 64 -39 21 -56 23 -186 23 -79 0 -145 -4 -148 -8 -3 -5 1 -30 9 -57 16
-51 19 -167 6 -200 -7 -16 -11 -9 -20 33 -15 71 -57 154 -98 197 l-34 35 -102
0 c-56 0 -107 -4 -113 -8 -6 -4 -23 -25 -37 -47 -27 -40 -35 -79 -18 -89 5 -4
2 -20 -7 -39 -9 -17 -18 -57 -20 -87 -5 -74 4 -82 105 -78 l78 3 5 35 c4 26
10 36 27 38 19 3 22 -2 25 -35 l3 -38 246 0 245 0 42 27 c23 16 50 45 60 65
18 33 20 35 26 16 28 -87 139 -132 274 -113 84 12 102 30 102 106 0 29 5 56
10 59 14 9 12 53 -3 62 -7 4 -13 26 -12 48 0 36 -4 42 -35 57 -52 25 -136 30
-199 13z m-688 -74 c36 -40 70 -117 82 -188 l7 -43 -62 0 c-58 0 -61 1 -60 23
5 58 5 58 -62 55 l-63 -3 -3 -37 -3 -38 -55 0 -54 0 0 33 c0 40 28 101 66 146
l29 34 -33 -6 c-37 -7 -38 -5 -15 34 17 28 19 29 104 29 l87 0 35 -39z m446
19 c53 -33 71 -131 33 -188 -28 -44 -68 -56 -194 -60 l-117 -4 9 33 c13 44 13
181 0 214 l-10 27 127 -4 c90 -2 135 -8 152 -18z m431 4 c7 -7 8 -19 0 -38 -9
-25 -13 -26 -47 -19 -87 17 -133 -5 -133 -63 0 -41 22 -64 62 -64 30 0 30 1
24 40 l-6 40 60 0 60 0 -10 -26 c-6 -14 -10 -45 -10 -68 0 -37 -4 -45 -22 -50
-47 -12 -160 -6 -195 11 -95 45 -98 183 -5 233 30 17 52 20 124 18 48 -2 92
-8 98 -14z"/>
<path d="M3800 413 l-22 -28 37 -3 c46 -4 51 1 37 33 -15 32 -25 32 -52 -2z"/>
<path d="M4200 374 l0 -67 41 6 c52 7 61 16 62 62 1 44 -21 65 -70 65 l-33 0
0 -66z"/>
<path d="M6358 547 c-85 -24 -130 -70 -143 -148 l-7 -38 -34 69 c-19 38 -49
80 -65 94 -28 24 -38 26 -135 26 l-104 0 -30 -41 c-36 -50 -45 -76 -32 -92 7
-8 5 -29 -8 -67 -22 -62 -25 -102 -10 -131 9 -16 22 -19 90 -19 85 0 100 9
100 60 0 17 5 21 23 18 13 -2 21 -9 19 -18 -2 -7 -1 -24 3 -37 5 -22 10 -23
88 -23 51 0 88 5 95 12 7 7 12 29 12 51 l0 39 26 -32 c51 -60 144 -87 247 -70
71 11 95 30 99 79 l3 36 18 -30 c27 -45 74 -72 142 -84 68 -12 170 0 193 23
12 12 17 11 33 -5 18 -18 33 -19 156 -17 124 3 137 5 147 23 6 11 12 22 13 24
1 2 10 -6 20 -18 22 -26 110 -44 173 -35 50 7 120 39 120 54 0 6 5 10 10 10 6
0 10 -7 10 -15 0 -27 60 -48 140 -48 100 -1 147 21 177 83 12 25 22 37 23 28
0 -27 47 -75 92 -93 67 -27 193 -24 255 6 67 34 93 76 93 154 0 119 -76 179
-226 178 -136 0 -211 -51 -222 -148 -5 -48 -5 -48 -22 -25 -15 20 -16 28 -4
68 8 25 12 53 9 63 -15 46 -167 59 -246 21 -63 -30 -87 -90 -58 -143 6 -12 8
-28 4 -36 -4 -13 -10 -8 -25 20 -15 28 -18 42 -10 62 32 85 -2 119 -119 119
-82 -1 -150 -26 -171 -63 -13 -26 -13 -94 1 -108 8 -8 8 -17 0 -32 -11 -20
-13 -20 -36 -5 -25 17 -33 48 -15 59 6 3 10 30 10 60 0 79 -9 85 -141 85
l-109 0 -19 -31 c-16 -27 -18 -45 -14 -128 4 -77 2 -100 -11 -116 -14 -19 -15
-17 -16 31 0 70 -11 77 -93 57 -54 -13 -69 -14 -82 -3 -12 10 -13 16 -3 27 12
15 37 14 110 -3 33 -8 58 27 66 91 5 44 4 45 -34 61 -55 23 -167 24 -226 1
-60 -23 -104 -73 -113 -127 -5 -28 -11 -40 -20 -36 -7 2 -43 -3 -79 -11 -71
-18 -95 -11 -82 23 5 14 14 15 49 9 88 -14 90 -14 115 37 29 57 23 85 -22 103
-49 21 -145 26 -198 12z m-253 -84 c35 -45 75 -152 75 -199 0 -23 -3 -24 -59
-24 l-58 0 1 38 1 37 -62 3 c-68 3 -69 2 -64 -56 2 -22 -1 -23 -56 -20 l-58 3
2 37 c3 46 25 92 67 137 l31 34 -38 -6 c-38 -6 -38 -6 -25 16 8 12 18 28 22
35 5 8 36 12 96 12 l89 0 36 -47z m441 35 c12 -13 -11 -73 -27 -69 -8 3 -37 7
-65 9 -46 3 -53 1 -73 -24 -24 -31 -21 -59 12 -88 22 -18 76 -19 135 -1 20 7
22 4 22 -28 0 -47 -19 -57 -112 -57 -120 0 -178 43 -180 134 -1 56 21 92 73
119 27 14 52 17 121 15 47 -2 90 -6 94 -10z m362 6 c25 -7 27 -21 11 -58 -10
-21 -15 -23 -36 -15 -99 38 -187 -36 -118 -101 20 -19 31 -22 72 -17 26 3 58
9 71 12 20 7 22 4 22 -29 0 -45 -22 -56 -117 -56 -118 0 -178 46 -178 136 0
85 65 134 180 134 39 0 80 -3 93 -6z m332 -29 l0 -35 -50 0 c-38 0 -50 -4 -50
-15 0 -11 11 -15 40 -15 38 0 40 -2 40 -30 0 -28 -2 -30 -40 -30 -33 0 -40 -3
-40 -20 0 -18 7 -20 60 -20 63 0 66 -3 54 -47 -6 -22 -11 -23 -120 -23 l-113
0 11 30 c11 32 7 194 -6 223 -8 16 1 17 103 17 l111 0 0 -35z m336 22 c3 -8 0
-25 -5 -39 -9 -24 -11 -25 -50 -15 -30 8 -44 8 -52 0 -9 -9 4 -19 49 -42 32
-16 62 -37 66 -46 13 -35 5 -64 -25 -89 -27 -23 -40 -26 -104 -26 -95 0 -105
4 -105 46 l0 34 59 -6 c75 -8 87 8 29 37 -100 50 -117 107 -43 147 30 17 174
15 181 -1z m319 3 c4 -6 3 -24 0 -41 -5 -23 -11 -29 -23 -24 -10 4 -32 9 -51
12 -49 9 -37 -15 25 -47 54 -27 74 -57 66 -96 -8 -41 -56 -64 -132 -64 -97 0
-112 6 -108 44 l3 31 64 -4 c77 -4 77 6 1 51 -36 22 -58 43 -65 62 -9 25 -6
31 23 57 30 27 38 29 112 29 43 0 82 -5 85 -10z m400 -4 c68 -29 96 -126 56
-192 -27 -45 -76 -64 -163 -64 -126 1 -188 46 -188 137 0 49 32 100 73 118 43
19 178 19 222 1z"/>
<path d="M5986 418 c-23 -32 -20 -38 19 -38 37 0 42 9 25 41 -14 25 -25 24
-44 -3z"/>
<path d="M8127 422 c-22 -25 -21 -75 1 -95 26 -23 94 -22 115 1 22 25 21 75
-1 95 -26 23 -94 22 -115 -1z"/>
<path d="M9525 555 c-5 -2 -27 -6 -47 -9 -20 -4 -50 -20 -67 -35 -26 -24 -31
-37 -31 -73 0 -24 5 -49 11 -55 8 -8 8 -17 0 -32 -11 -20 -13 -20 -36 -5 -25
17 -33 48 -15 59 6 3 10 30 10 60 0 79 -9 85 -140 85 -108 0 -110 0 -127 -27
-14 -22 -18 -49 -18 -135 0 -74 -4 -111 -13 -120 -24 -24 -33 12 -28 112 3 52
6 111 8 130 l3 35 -110 0 -110 0 3 -30 c1 -16 5 -67 8 -112 7 -91 4 -94 -47
-68 -24 13 -28 19 -19 35 5 10 10 37 10 60 0 34 -6 48 -33 75 -40 40 -79 47
-222 43 l-100 -3 4 -30 c4 -36 4 -238 -1 -280 l-3 -30 126 -1 c69 0 133 -4
143 -7 9 -4 41 2 71 12 43 15 55 16 59 6 4 -11 55 -14 257 -14 149 0 259 4
270 10 11 5 19 20 19 32 0 21 1 21 23 -6 38 -47 175 -58 249 -21 62 32 88 114
53 167 -11 18 -12 31 -5 57 15 54 12 78 -12 94 -22 14 -123 29 -143 21z m-845
-60 c52 -27 64 -74 30 -118 l-20 -25 32 -27 c17 -15 43 -31 57 -37 l26 -10
-35 -18 c-62 -34 -93 -27 -142 30 -24 27 -47 50 -52 50 -9 0 -4 -55 9 -82 6
-16 0 -18 -56 -18 l-64 0 3 120 c3 84 0 125 -8 135 -11 13 1 15 89 15 71 0
111 -5 131 -15z m310 -4 c-5 -11 -10 -63 -10 -116 0 -53 5 -105 10 -116 10
-18 7 -19 -57 -19 l-68 0 0 135 0 135 68 0 c64 0 67 -1 57 -19z m318 -18 l3
-33 -50 0 c-39 0 -51 -4 -51 -15 0 -11 11 -15 40 -15 38 0 40 -2 40 -30 0 -28
-2 -30 -40 -30 -33 0 -40 -3 -40 -20 0 -18 7 -20 60 -20 63 0 66 -3 54 -47 -6
-22 -11 -23 -119 -23 l-113 0 10 37 c11 39 6 187 -6 216 -8 16 -1 18 100 15
l109 -3 3 -32z m338 24 c3 -8 0 -25 -5 -39 -9 -24 -11 -25 -50 -15 -30 8 -44
8 -52 0 -9 -9 4 -19 49 -42 32 -16 62 -37 66 -46 12 -33 6 -62 -19 -85 -21
-20 -39 -25 -95 -28 -101 -6 -120 1 -120 42 l0 34 59 -5 c33 -3 61 -1 64 4 4
5 -13 20 -36 33 -95 52 -115 103 -54 140 39 24 184 29 193 7z"/>
<path d="M8570 425 c0 -20 5 -25 24 -25 31 0 50 22 34 38 -7 7 -22 12 -35 12
-18 0 -23 -6 -23 -25z"/>
<path d="M4901 519 c-17 -27 -18 -44 -14 -125 5 -76 3 -98 -11 -118 -40 -63
-14 -76 152 -76 94 0 133 4 140 13 6 7 16 35 22 62 11 48 10 51 -15 71 -28 22
-31 63 -4 54 8 -2 39 -5 69 -5 l55 0 -1 -55 c-1 -30 -5 -74 -9 -98 l-8 -43
114 3 114 3 -3 30 c-2 17 -6 60 -8 98 l-6 67 40 0 c46 0 65 17 82 77 22 74 25
73 -190 73 -204 0 -202 1 -237 -56 -11 -18 -12 -18 -12 3 -2 44 -24 53 -142
53 l-109 0 -19 -31z m229 -44 l0 -35 -50 0 c-38 0 -50 -4 -50 -15 0 -11 11
-15 40 -15 38 0 40 -2 40 -30 0 -28 -2 -30 -40 -30 -33 0 -40 -3 -40 -20 0
-18 7 -20 60 -20 63 0 66 -3 54 -47 -6 -22 -11 -23 -120 -23 l-113 0 11 30
c11 32 7 194 -6 223 -8 16 1 17 103 17 l111 0 0 -35z m440 19 c0 -39 -19 -54
-71 -54 l-51 0 4 -100 3 -100 -67 0 -68 0 10 26 c6 14 10 59 10 101 l0 75 -65
-4 c-36 -2 -65 -3 -65 -2 0 1 7 18 15 38 l15 36 165 0 c143 0 165 -2 165 -16z"/>
</g>
</svg>
